# xmcd CD database file
#
# Track frame offsets:
#	150
#	15873
#	34598
#	44066
#	57538
#	70409
#	86083
#	98081
#	109787
#	124757
#	141753
#	156694
#	172093
#	182939
#	195205
#	207601
#	223719
#	237950
#
# Disc length: 3370 seconds
#
# Revision: 4
# Processed by: cddbd v1.5.1PL2 Copyright (c) Steve Scherf et al.
# Submitted via: CDex 1.51
#
DISCID=0f0d2812
DTITLE=The Milers and The Atlantics - Dutch Jazz Giants Vol 3
DYEAR=1999
DGENRE=Jazz
TTITLE0=The Millers - Make Mine Millers
TTITLE1=The Millers - I Wanne Get Married
TTITLE2=The Millers - Coquette
TTITLE3=The Millers - Lillette
TTITLE4=The Millers - Sweet Georgia Brown
TTITLE5=The Millers - Take A Letter, Miss Smith
TTITLE6=The Millers - Squatty Roo
TTITLE7=The Millers - Oop Bop Sh'bam
TTITLE8=The Millers - I Love You
TTITLE9=The Millers - Honeysuckle Rose
TTITLE10=The Millers and The Atlantics - What A Diff'rence A Day Made
TTITLE11=The Millers and The Atlantics - I'll Buy That Dream
TTITLE12=The Millers and The Atlantics - I Don't Care If The Sun Don't Shine
TTITLE13=The Millers and The Atlantics - Song Sung Blue
TTITLE14=The Millers and The Atlantics - Let There Be Love
TTITLE15=The Millers and The Atlantics - That Old Feeling
TTITLE16=The Millers and The Atlantics - More
TTITLE17=The Millers and The Atlantics - I Thought About You
EXTD=YEAR: 1999
EXTT0=
EXTT1=
EXTT2=
EXTT3=
EXTT4=
EXTT5=
EXTT6=
EXTT7=
EXTT8=
EXTT9=
EXTT10=
EXTT11=
EXTT12=
EXTT13=
EXTT14=
EXTT15=
EXTT16=
EXTT17=
PLAYORDER=
